<svg width="56" height="56" viewBox="0 0 56 56" fill="none" xmlns="http://www.w3.org/2000/svg">
<circle cx="28" cy="28" r="28" fill="#25D366"/>
<path d="M28.0136 16.3333C21.5899 16.3333 16.3607 21.5581 16.3583 27.9818C16.3572 30.0351 16.895 32.0397 17.9146 33.806L16.3333 39.6667L22.4377 38.2243C24.1399 39.1529 26.0561 39.6404 28.0068 39.6416H28.0113C34.4338 39.6416 39.6608 34.4157 39.6643 27.9932C39.6666 24.8793 38.4558 21.9517 36.2555 19.749C34.0551 17.5475 31.1309 16.3345 28.0136 16.3333ZM28.0113 18.6667C30.5033 18.6678 32.8452 19.6394 34.6057 21.3988C36.3662 23.1604 37.3333 25.5012 37.331 27.9909C37.3286 33.1289 33.1494 37.3083 28.009 37.3083C26.4539 37.3071 24.9134 36.9166 23.5566 36.1758L22.7704 35.7474L21.9023 35.9525L19.6054 36.4948L20.1659 34.4121L20.4189 33.4779L19.9358 32.6393C19.1215 31.23 18.6905 29.6186 18.6917 27.9818C18.694 22.8461 22.8745 18.6667 28.0113 18.6667ZM23.8892 22.6042C23.6944 22.6042 23.3794 22.6771 23.1122 22.9687C22.8451 23.2592 22.0914 23.9628 22.0914 25.3955C22.0914 26.8282 23.135 28.213 23.2808 28.4079C23.4255 28.6015 25.2953 31.6344 28.2551 32.8011C30.7145 33.7706 31.214 33.5793 31.7483 33.5303C32.2826 33.4824 33.4721 32.8273 33.7148 32.1471C33.9574 31.467 33.958 30.8819 33.8857 30.7617C33.8133 30.6404 33.6191 30.568 33.3274 30.4222C33.0369 30.2764 31.6053 29.5734 31.3381 29.4766C31.071 29.3797 30.8756 29.3307 30.6819 29.6224C30.4882 29.9141 29.9316 30.568 29.7613 30.7617C29.591 30.9565 29.4218 30.9827 29.1301 30.8369C28.8385 30.6899 27.9007 30.3816 26.7877 29.39C25.922 28.6188 25.3379 27.6673 25.1676 27.3756C24.9984 27.0851 25.1516 26.9256 25.2974 26.7809C25.4281 26.6503 25.5868 26.4408 25.7327 26.2705C25.8773 26.1002 25.9275 25.9788 26.0243 25.7852C26.1212 25.5915 26.0716 25.4206 25.9993 25.2747C25.9269 25.1289 25.3605 23.6909 25.1015 23.1146C24.8833 22.6304 24.6529 22.6192 24.4452 22.611C24.2761 22.604 24.0829 22.6042 23.8892 22.6042Z" fill="white"/>
</svg>
