<svg width="166" height="166" viewBox="0 0 166 166" fill="none" xmlns="http://www.w3.org/2000/svg">
<path d="M67.9792 161.295L72.312 155.058L74.6504 162.283L77.0482 162.638L74.006 153.696L71.0858 153.263L65.5814 160.94L67.9792 161.295Z" fill="#FFB9BA"/>
<path d="M52.364 147.521L50.1593 146.604L50.9426 156.028L53.6348 157.149L60.8616 151.058L58.668 150.145L57.1501 151.45L52.508 149.518L52.364 147.521ZM55.79 152.625L52.8964 155.113L52.6325 151.311L55.79 152.625Z" fill="#FFB9BA"/>
<path d="M41.9109 143.666L38.0777 149.024L39.8344 150.281L44.7219 143.449L37.695 138.422L36.6407 139.896L41.9109 143.666Z" fill="#FFB9BA"/>
<path d="M22.7141 135.503L26.7795 140.045L33.0388 134.444L28.9735 129.901C27.525 128.283 25.2511 127.757 23.1229 129.662C20.9947 131.566 21.2657 133.884 22.7141 135.503ZM28.1674 131.718L30.2481 134.042L26.6892 137.227L24.6085 134.903C23.5202 133.686 23.0433 132.632 24.5634 131.271C26.0835 129.911 27.079 130.501 28.1674 131.718Z" fill="#FFB9BA"/>
<path d="M14.2396 123.946L15.3712 125.786L22.526 121.385L21.3944 119.545L14.2396 123.946Z" fill="#FFB9BA"/>
<path d="M15.4034 114.964C17.6608 114.081 17.4608 111.956 16.2062 108.749C15.0739 105.854 13.8755 104.042 11.7857 104.86C9.80765 105.634 10.3876 107.61 11.4265 110.76C12.1842 113.092 12.2561 113.606 11.6526 113.842C11.0715 114.069 10.6979 113.674 9.92412 111.696C9.10663 109.606 8.98234 108.662 9.84284 108.326L9.05595 106.314C7.12261 107.071 7.0845 109.147 8.23861 112.097C9.38398 115.025 10.6179 116.566 12.3389 115.893C14.0935 115.206 14.1009 113.644 12.924 110.174C12.0546 107.59 11.9915 107.099 12.6396 106.845C13.2543 106.605 13.7382 107.15 14.5644 109.262C15.5611 111.81 15.4435 112.629 14.6165 112.953L15.4034 114.964Z" fill="#FFB9BA"/>
<path d="M3.06869 90.572L9.31949 89.6952L3.86552 96.2524L4.27227 99.152L12.5908 97.9851L12.2908 95.8461L6.05185 96.7212L11.4956 90.1776L11.0872 87.2661L2.76863 88.433L3.06869 90.572Z" fill="#FFB9BA"/>
<path d="M5.05679 71.9378L3.34633 71.8L2.63305 80.6513L11.0059 81.326L11.7192 72.4747L10.0087 72.3369L9.46895 79.0351L7.77046 78.8983L8.31024 72.2L6.75528 72.0747L6.2155 78.773L4.517 78.6361L5.05679 71.9378Z" fill="#FFB9BA"/>
<path d="M5.29265 62.5283L4.76821 64.6237L12.9169 66.6631L13.4413 64.5678L5.29265 62.5283Z" fill="#FFB9BA"/>
<path d="M17.3249 36.4378L22.6222 39.87L14.2059 41.2516L12.6137 43.7089L19.6633 48.2766L20.8378 46.4638L15.5507 43.0381L23.9504 41.66L25.549 39.1926L18.4994 34.625L17.3249 36.4378Z" fill="#FFB9BA"/>
<path d="M24.8528 27.3798L23.3749 28.9551L29.5011 34.7023L30.9789 33.127L24.8528 27.3798Z" fill="#FFB9BA"/>
<path d="M36.3158 25.6867L32.3159 20.452L30.5996 21.7634L35.6996 28.4379L42.5649 23.1921L41.4647 21.7523L36.3158 25.6867Z" fill="#FFB9BA"/>
<path d="M52.4679 17.8512C55.8123 16.3065 56.6122 14.2319 55.4448 11.7045C54.2824 9.18793 52.1894 8.46272 48.845 10.0075C45.4896 11.5573 44.6906 13.605 45.858 16.1324C47.0304 18.6708 49.1125 19.401 52.4679 17.8512ZM51.7081 16.2062C49.6709 17.1472 48.5435 16.7955 47.8189 15.2267C47.0994 13.6689 47.5567 12.5985 49.6048 11.6525C51.6529 10.7065 52.7693 11.0632 53.4838 12.6102C54.2034 14.168 53.7453 15.2653 51.7081 16.2062Z" fill="#FFB9BA"/>
<path d="M73.3597 5.36134L74.2208 6.60266L75.7244 5.41886L75.7283 6.92365L77.2232 6.80016L76.9802 5.31513L78.6577 6.23616L79.3034 4.87036L77.5241 4.17448L79.1641 3.1841L78.2911 1.94377L76.7994 3.12658L76.7955 1.6218L75.2896 1.75823L75.5317 3.2313L73.8661 2.30929L73.2204 3.67508L75.0007 4.38292L73.3597 5.36134Z" fill="#FFB9BA"/>
<path d="M107.386 6.43899L102.295 12.0731L100.895 4.60947L98.5622 3.95188L100.441 13.2088L103.283 14.0096L109.72 7.09658L107.386 6.43899Z" fill="#FFB9BA"/>
<path d="M121.121 22.088L123.191 23.2787L123.614 13.8314L121.086 12.3775L113.143 17.499L115.203 18.6836L116.874 17.5825L121.233 20.0894L121.121 22.088ZM118.373 16.5895L121.56 14.4909L121.338 18.2946L118.373 16.5895Z" fill="#FFB9BA"/>
<path d="M130.999 27.2425L135.483 22.416L133.9 20.9458L128.183 27.0999L134.513 32.9805L135.746 31.653L130.999 27.2425Z" fill="#FFB9BA"/>
<path d="M149 37.783L145.546 32.76L138.625 37.5195L142.079 42.5425C143.309 44.3322 145.498 45.1429 147.851 43.5246C150.205 41.9064 150.231 39.5727 149 37.783ZM143.109 40.8435L141.342 38.2726L145.277 35.5665L147.045 38.1373C147.97 39.4821 148.308 40.5889 146.627 41.7448C144.946 42.9007 144.034 42.1882 143.109 40.8435Z" fill="#FFB9BA"/>
<path d="M155.935 50.3244L155.046 48.3555L147.39 51.81L148.278 53.7789L155.935 50.3244Z" fill="#FFB9BA"/>
<path d="M153.637 59.0851C151.286 59.6736 151.213 61.807 152.05 65.1479C152.804 68.1629 153.762 70.1126 155.939 69.5678C158 69.0521 157.676 67.0178 157.046 63.7612C156.592 61.3515 156.586 60.8334 157.214 60.6761C157.82 60.5246 158.14 60.964 158.656 63.0244C159.201 65.2013 159.204 66.153 158.307 66.3773L158.832 68.4727C160.846 67.9687 161.148 65.9138 160.379 62.8406C159.615 59.7907 158.588 58.1058 156.795 58.5545C154.967 59.012 154.761 60.5604 155.487 64.1516C156.02 66.8262 156.02 67.3209 155.345 67.4899C154.705 67.6502 154.294 67.0478 153.743 64.8477C153.079 62.1936 153.3 61.396 154.162 61.1804L153.637 59.0851Z" fill="#FFB9BA"/>
<path d="M162.767 84.8491L156.455 84.9232L162.699 79.1135L162.665 76.1857L154.265 76.2842L154.291 78.4441L160.59 78.3702L154.358 84.1677L154.392 87.1075L162.792 87.009L162.767 84.8491Z" fill="#FFB9BA"/>
<path d="M158.423 103.079L160.102 103.433L161.936 94.7446L153.717 93.0096L151.883 101.698L153.562 102.053L154.95 95.4774L156.617 95.8294L155.229 102.404L156.755 102.727L158.143 96.1516L159.811 96.5036L158.423 103.079Z" fill="#FFB9BA"/>
<path d="M156.991 112.382L157.778 110.37L149.955 107.31L149.168 109.321L156.991 112.382Z" fill="#FFB9BA"/>
<path d="M141.735 136.728L136.918 132.65L145.442 132.351L147.334 130.116L140.923 124.688L139.527 126.337L144.335 130.408L135.829 130.705L133.929 132.949L140.34 138.377L141.735 136.728Z" fill="#FFB9BA"/>
<path d="M133.116 144.754L134.782 143.38L129.437 136.9L127.771 138.274L133.116 144.754Z" fill="#FFB9BA"/>
<path d="M121.53 144.975L124.832 150.676L126.701 149.594L122.492 142.324L115.015 146.653L115.923 148.222L121.53 144.975Z" fill="#FFB9BA"/>
<path d="M104.512 150.69C100.999 151.797 99.9412 153.753 100.777 156.408C101.61 159.052 103.594 160.038 107.107 158.931C110.633 157.821 111.686 155.892 110.85 153.236C110.01 150.57 108.038 149.58 104.512 150.69ZM105.057 152.419C107.197 151.745 108.271 152.237 108.79 153.885C109.305 155.522 108.715 156.526 106.563 157.203C104.411 157.881 103.349 157.385 102.838 155.759C102.322 154.123 102.916 153.093 105.057 152.419Z" fill="#FFB9BA"/>
<path d="M93.9193 159.613L93.0293 158.392L91.5538 159.611L91.5147 158.107L90.0231 158.265L90.3009 159.744L88.6022 158.863L87.9887 160.243L89.7839 160.897L88.1675 161.926L89.0694 163.145L90.533 161.928L90.5722 163.432L92.0744 163.26L91.7979 161.793L93.4846 162.676L94.0981 161.296L92.3017 160.63L93.9193 159.613Z" fill="#FFB9BA"/>
</svg>
