<svg width="28" height="28" viewBox="0 0 28 28" fill="none" xmlns="http://www.w3.org/2000/svg">
<path d="M14.0156 0.666672C6.67425 0.666672 0.697938 6.63784 0.695272 13.9792C0.693938 16.3258 1.30858 18.6168 2.47392 20.6354L0.666626 27.3333L7.64319 25.6849C9.58852 26.7462 11.7784 27.3034 14.0078 27.3047H14.013C21.353 27.3047 27.3267 21.3322 27.3307 13.9922C27.3334 10.4335 25.9495 7.08765 23.4349 4.57032C20.9202 2.05432 17.5783 0.668005 14.0156 0.666672ZM14.013 3.33334C16.861 3.33467 19.5374 4.44507 21.5494 6.45573C23.5614 8.46907 24.6667 11.1443 24.664 13.9896C24.6614 19.8616 19.885 24.638 14.0104 24.638C12.233 24.6367 10.4725 24.1904 8.92183 23.3438L8.0234 22.8542L7.03121 23.0885L4.40621 23.7083L5.04683 21.3281L5.3359 20.2604L4.78381 19.3021C3.85315 17.6914 3.36061 15.8498 3.36194 13.9792C3.36461 8.10984 8.14231 3.33334 14.013 3.33334ZM9.30204 7.83334C9.07938 7.83334 8.71936 7.91667 8.41402 8.25001C8.10869 8.58201 7.24736 9.38611 7.24736 11.0234C7.24736 12.6608 8.44006 14.2435 8.60673 14.4662C8.77206 14.6875 10.909 18.1537 14.2916 19.487C17.1023 20.595 17.6731 20.3763 18.2838 20.3203C18.8945 20.2657 20.2539 19.5169 20.5312 18.7396C20.8085 17.9623 20.8092 17.2936 20.7265 17.1563C20.6439 17.0176 20.4218 16.9349 20.0885 16.7682C19.7565 16.6016 18.1204 15.7982 17.8151 15.6875C17.5097 15.5768 17.2864 15.5208 17.0651 15.8542C16.8437 16.1875 16.2076 16.9349 16.013 17.1563C15.8183 17.3789 15.625 17.4089 15.2916 17.2422C14.9583 17.0742 13.8865 16.7219 12.6145 15.5885C11.6252 14.7072 10.9576 13.6198 10.763 13.2865C10.5696 12.9545 10.7448 12.7721 10.9114 12.6068C11.0608 12.4574 11.2421 12.2181 11.4088 12.0234C11.5741 11.8288 11.6315 11.6901 11.7421 11.4688C11.8528 11.2474 11.7962 11.0521 11.7135 10.8854C11.6308 10.7188 10.9835 9.07534 10.6875 8.41667C10.4381 7.86334 10.1748 7.85048 9.93746 7.84115C9.74413 7.83315 9.52338 7.83334 9.30204 7.83334Z" fill="white"/>
</svg>
